<svg xmlns="http://www.w3.org/2000/svg" viewBox="0 0 48 48" id="Custom"><path d="M24 0C10.751 0 0 10.749 0 23.998 0 37.248 10.751 48 24 48s24-10.753 24-24.002C48 10.749 37.249 0 24 0zm0 1.008c12.704 0 22.992 10.285 22.992 22.99 0 12.705-10.288 22.994-22.992 22.994S1.008 36.702 1.008 23.998c0-12.705 10.288-22.99 22.992-22.99zM11.5 14l-.5.5V16h1v-1h1v-1h-1.5zm2.5 0v1h2v-1h-2zm3 0v1h2v-1h-2zm3 0v1h2v-1h-2zm3 0v1h2v-1h-2zm3 0v1h2v-1h-2zm3 0v1h2v-1h-2zm3 0v1h2v-1h-2zm3 0v1h1v1h1v-1.5l-.5-.5H35zm-7.486 2.965a.5.5 0 0 0-.045.004.5.5 0 0 0-.125.031.5.5 0 0 0-.282.25l-7 11.969a.504.504 0 1 0 .875.5l7-11.969a.5.5 0 0 0-.423-.785zM11 17v2h1v-2h-1zm25 0v2h1v-2h-1zm-17.5 2a.486.486 0 0 0-.344.156l-3.843 3.875c-.06.024-.108.076-.157.125a.476.476 0 0 0 0 .688c.05.049.096.1.156.125l3.844 3.875a.476.476 0 0 0 .688 0 .476.476 0 0 0 0-.688L15.187 23.5l3.657-3.656a.476.476 0 0 0 0-.688A.487.487 0 0 0 18.5 19zm11 0a.485.485 0 0 0-.344.156.476.476 0 0 0 0 .688l3.657 3.656-3.657 3.656a.476.476 0 0 0 0 .688.476.476 0 0 0 .688 0l3.843-3.875c.06-.024.108-.076.157-.125a.476.476 0 0 0 0-.688c-.05-.049-.096-.1-.157-.125l-3.843-3.875A.487.487 0 0 0 29.5 19zM11 20v2h1v-2h-1zm25 0v2h1v-2h-1zm-25 3v2h1v-2h-1zm25 0v2h1v-2h-1zm-25 3v2h1v-2h-1zm25 0v2h1v-2h-1zm-25 3v2h1v-2h-1zm25 0v2h1v-2h-1zm-25 3v.5l.5.5H13v-1h-2zm3 0v1h2v-1h-2zm3 0v1h2v-1h-2zm3 0v1h2v-1h-2zm3 0v1h2v-1h-2zm3 0v1h2v-1h-2zm3 0v1h2v-1h-2zm3 0v1h2v-1h-2zm3 0v1h1.5l.5-.5V32h-2z" color="#000" overflow="visible" fill="#fafafa" class="color000000 svgShape"></path></svg>