<svg xmlns="http://www.w3.org/2000/svg" viewBox="0 0 32 32" id="Setting"><path d="M14 1a.5.5 0 0 0-.5.5v.793c-.266.084-.521.19-.77.316l-.558-.558a.5.5 0 0 0-.707 0L10.05 3.465a.5.5 0 0 0 0 .707l.558.558a4.986 4.986 0 0 0-.318.77H9.5A.5.5 0 0 0 9 6v2a.5.5 0 0 0 .5.5h.791c.084.266.19.523.316.771l-.556.557a.5.5 0 0 0 0 .707l1.414 1.414a.5.5 0 0 0 .707 0l.558-.558c.249.128.504.235.77.32v.789a.5.5 0 0 0 .5.5h2a.5.5 0 0 0 .5-.5v-.791c.266-.084.523-.189.771-.316l.557.556a.5.5 0 0 0 .707 0l1.414-1.414a.5.5 0 0 0 0-.707l-.556-.557a4.98 4.98 0 0 0 .318-.771h.789A.5.5 0 0 0 21 8V6a.5.5 0 0 0-.5-.5h-.791a4.974 4.974 0 0 0-.316-.771l.556-.557a.5.5 0 0 0 0-.707L18.535 2.05a.5.5 0 0 0-.707 0l-.558.558a4.986 4.986 0 0 0-.77-.318V1.5A.5.5 0 0 0 16 1h-2zm.5 1h1v.617a.5.5 0 0 0 .389.488c.438.1.857.273 1.238.512a.5.5 0 0 0 .62-.07l.435-.436.707.707-.434.434a.5.5 0 0 0-.07.62c.238.38.409.8.508 1.24a.5.5 0 0 0 .488.388H20v1h-.617a.5.5 0 0 0-.488.39c-.1.439-.273.856-.512 1.237a.5.5 0 0 0 .07.62l.436.435-.707.707-.434-.434a.5.5 0 0 0-.617-.07 4.006 4.006 0 0 1-1.24.51.5.5 0 0 0-.391.486V12h-1v-.617a.5.5 0 0 0-.389-.487 4.003 4.003 0 0 1-1.238-.511.5.5 0 0 0-.62.066l-.435.436-.707-.707.434-.434a.5.5 0 0 0 .07-.617 4.003 4.003 0 0 1-.508-1.24.5.5 0 0 0-.488-.391H10v-1h.617a.5.5 0 0 0 .488-.389c.1-.438.273-.855.512-1.236a.5.5 0 0 0-.07-.621l-.436-.436.707-.707.434.434a.5.5 0 0 0 .617.072 4.006 4.006 0 0 1 1.24-.51.5.5 0 0 0 .391-.486V2zm.5 1.656A3.352 3.352 0 0 0 11.654 7 3.354 3.354 0 0 0 15 10.346 3.354 3.354 0 0 0 18.346 7 3.352 3.352 0 0 0 15 3.656zm0 1c1.3 0 2.346 1.043 2.346 2.344A2.339 2.339 0 0 1 15 9.346 2.339 2.339 0 0 1 12.654 7c0-1.3 1.045-2.344 2.346-2.344zM23.818 11a.5.5 0 0 0-.5.5v.996a5.792 5.792 0 0 0-1.025.42l-.7-.7a.5.5 0 0 0-.706 0l-1.672 1.67a.5.5 0 0 0 0 .708l.703.703a5.784 5.784 0 0 0-.424 1.021H18.5a.5.5 0 0 0-.5.5v2.366a.5.5 0 0 0 .5.5h.994c.108.354.247.695.42 1.023l-.7.701a.5.5 0 0 0 0 .707l1.673 1.67a.5.5 0 0 0 .707 0l.7-.701c.329.174.67.315 1.024.424v.992a.5.5 0 0 0 .5.5h2.364a.5.5 0 0 0 .5-.5v-.994a5.792 5.792 0 0 0 1.025-.42l.7.7a.5.5 0 0 0 .706 0l1.672-1.67a.5.5 0 0 0 0-.708l-.703-.703c.174-.327.315-.667.424-1.021h.994a.5.5 0 0 0 .5-.5v-2.366a.5.5 0 0 0-.5-.5h-.994a5.79 5.79 0 0 0-.42-1.023l.7-.701a.5.5 0 0 0 0-.707l-1.673-1.67a.5.5 0 0 0-.707 0l-.7.701a5.792 5.792 0 0 0-1.024-.424V11.5a.5.5 0 0 0-.5-.5h-2.364zm.5 1h1.364v.82a.5.5 0 0 0 .388.489c.528.12 1.034.329 1.492.617a.5.5 0 0 0 .62-.07l.578-.579.965.963-.577.578a.5.5 0 0 0-.072.618c.287.46.495.965.613 1.494a.5.5 0 0 0 .489.388H31v1.366h-.82a.5.5 0 0 0-.489.388 4.81 4.81 0 0 1-.615 1.49.5.5 0 0 0 .069.62l.58.58-.965.963-.576-.577a.5.5 0 0 0-.62-.07c-.46.287-.963.495-1.492.613a.5.5 0 0 0-.39.487V24h-1.364v-.82a.5.5 0 0 0-.388-.487 4.826 4.826 0 0 1-1.492-.617.5.5 0 0 0-.62.07l-.578.579-.965-.963.577-.578a.5.5 0 0 0 .072-.618 4.825 4.825 0 0 1-.613-1.494.5.5 0 0 0-.489-.388H19v-1.366h.82a.5.5 0 0 0 .489-.388 4.81 4.81 0 0 1 .615-1.49.5.5 0 0 0-.069-.62l-.58-.58.965-.963.576.577a.5.5 0 0 0 .62.07c.46-.287.963-.495 1.492-.613a.5.5 0 0 0 .39-.489V12zM7.455 14a.5.5 0 0 0-.5.5v1.402a7.431 7.431 0 0 0-1.533.63l-.986-.987a.5.5 0 0 0-.707 0L1.545 17.73a.5.5 0 0 0 0 .707l.988.989a7.425 7.425 0 0 0-.635 1.53H.5a.5.5 0 0 0-.5.5v3.09a.5.5 0 0 0 .5.5h1.402c.153.534.361 1.046.627 1.532l-.984.986a.5.5 0 0 0 0 .707l2.184 2.186a.5.5 0 0 0 .707 0l.99-.988c.485.267.996.479 1.53.633V31.5a.5.5 0 0 0 .5.5h3.089a.5.5 0 0 0 .5-.5v-1.4a7.426 7.426 0 0 0 1.533-.63l.986.987a.5.5 0 0 0 .707 0l2.184-2.186a.5.5 0 0 0 0-.707l-.988-.988c.268-.486.48-.996.635-1.53H17.5a.5.5 0 0 0 .5-.5v-3.09a.5.5 0 0 0-.5-.5h-1.402a7.426 7.426 0 0 0-.627-1.532l.984-.986a.5.5 0 0 0 0-.708l-2.184-2.185a.5.5 0 0 0-.707 0l-.99.988a7.43 7.43 0 0 0-1.53-.633v-1.4a.5.5 0 0 0-.5-.5H7.456zM25 14.139A3.868 3.868 0 0 0 21.139 18 3.87 3.87 0 0 0 25 21.863 3.87 3.87 0 0 0 28.861 18 3.868 3.868 0 0 0 25 14.139zM7.955 15h2.09v1.227a.5.5 0 0 0 .389.488c.707.161 1.383.44 1.998.826a.5.5 0 0 0 .619-.07l.867-.866 1.477 1.479-.862.863a.5.5 0 0 0-.072.617c.384.616.663 1.292.822 2a.5.5 0 0 0 .487.391H17v2.092h-1.227a.5.5 0 0 0-.488.389 6.457 6.457 0 0 1-.826 1.998.5.5 0 0 0 .07.619l.866.865-1.477 1.478-.863-.863a.5.5 0 0 0-.62-.07 6.453 6.453 0 0 1-2 .82.5.5 0 0 0-.39.488V31h-2.09v-1.227a.5.5 0 0 0-.389-.486 6.456 6.456 0 0 1-1.998-.826.5.5 0 0 0-.619.068l-.867.867-1.477-1.478.862-.863a.5.5 0 0 0 .072-.617 6.455 6.455 0 0 1-.822-2 .5.5 0 0 0-.487-.391H1v-2.092h1.227a.5.5 0 0 0 .488-.389c.161-.707.44-1.383.826-1.998a.5.5 0 0 0-.07-.619l-.866-.865 1.477-1.479.863.864a.5.5 0 0 0 .62.07 6.45 6.45 0 0 1 2-.82.5.5 0 0 0 .39-.489V15zM25 15.139A2.853 2.853 0 0 1 27.861 18 2.855 2.855 0 0 1 25 20.863 2.855 2.855 0 0 1 22.139 18 2.853 2.853 0 0 1 25 15.139zM9 18.104A4.904 4.904 0 0 0 4.104 23 4.904 4.904 0 0 0 9 27.896 4.904 4.904 0 0 0 13.896 23 4.904 4.904 0 0 0 9 18.104zm0 1A3.889 3.889 0 0 1 12.896 23 3.889 3.889 0 0 1 9 26.896 3.889 3.889 0 0 1 5.104 23 3.889 3.889 0 0 1 9 19.104z" color="#000" font-family="sans-serif" font-weight="400" overflow="visible" style="line-height:normal;text-indent:0;text-align:start;text-decoration-line:none;text-decoration-style:solid;text-decoration-color:#000;text-transform:none;block-progression:tb;white-space:normal;isolation:auto;mix-blend-mode:normal;solid-color:#000;solid-opacity:1" fill="#fafafa" class="color000000 svgShape"></path></svg>